<svg id="Layer_1" data-name="Layer 1" xmlns="http://www.w3.org/2000/svg" viewBox="0 0 500 500"><defs><style>.cls-1,.cls-2{fill:none;}.cls-2{stroke:#000;stroke-miterlimit:10;stroke-width:10px;}</style></defs><title>single ring black transparent</title><circle class="cls-1" cx="250" cy="250" r="250"/><circle class="cls-2" cx="250" cy="250" r="225"/><path d="M728.94,1866.43h8.27l52,66.8a16.27,16.27,0,0,0,12.87,6.26q0.9,0,1.79-.09a16.25,16.25,0,0,0,13-9.19l98.55-208.55h56.08a16.09,16.09,0,1,0,0-32.17H905.05a16.23,16.23,0,0,0-14.72,9.28l-91.65,193.9-40.6-52.14a16.27,16.27,0,0,0-12.87-6.26H728.94A16.09,16.09,0,1,0,728.94,1866.43Z" transform="translate(-600.2 -1564.5)"/></svg>